<svg viewbox="0 0 18 17" id="icon-telephone">
    <path
        fill-rule="evenodd"
        clip-rule="evenodd"
        d="M8.99995 1.08615C6.26565 1.08615 3.52476 1.55882 2.53026 2.50093C1.70513 3.28252 1.43008 4.66329 1.33736 5.53753C1.33736 5.53753 1.32458 5.62393 1.32458 5.66109C1.32458 6.00391 1.61234 6.27887 1.96417 6.27887C2.00574 6.27887 3.54402 6.15837 4.47143 6.08425C4.49375 6.08112 4.51624 6.07806 4.53856 6.07191C4.88397 6.0627 5.16227 5.7908 5.16227 5.45413L5.16536 4.237C5.16536 3.86014 5.48209 3.55737 5.87229 3.55737H12.1276C12.5178 3.55737 12.8346 3.86011 12.8346 4.237L12.8377 5.45413C12.8377 5.7908 13.116 6.0627 13.4614 6.07191C13.4835 6.0781 13.506 6.08112 13.5286 6.08425C14.4561 6.15834 15.9943 6.27887 16.0358 6.27887C16.3874 6.27887 16.6754 6.00391 16.6754 5.66109C16.6754 5.62393 16.6626 5.53753 16.6626 5.53753C16.5699 4.66329 16.2951 3.28255 15.47 2.50093C14.4751 1.55882 11.7342 1.08615 8.99995 1.08615ZM8.99995 9.11773C8.29317 9.11773 7.72071 9.67064 7.72071 10.3533C7.72071 11.036 8.29317 11.5889 8.99995 11.5889C9.70673 11.5889 10.2792 11.036 10.2792 10.3533C10.2792 9.67064 9.70673 9.11773 8.99995 9.11773ZM8.04054 6.33752V5.56528C8.04054 5.13902 7.68231 4.79304 7.24104 4.79304C6.79977 4.79304 6.44154 5.13905 6.44154 5.56528V6.33752L2.12715 10.7889C1.82985 11.07 1.64431 11.4622 1.64431 11.8948V13.1335C1.64431 13.8162 2.2168 14.3691 2.92355 14.3691H3.24337V15.1414C3.24337 15.5677 3.60164 15.9136 4.04291 15.9136C4.48417 15.9136 4.8424 15.5677 4.8424 15.1414V14.3691H13.1575V15.1414C13.1575 15.5677 13.5156 15.9136 13.9571 15.9136C14.3983 15.9136 14.7565 15.5677 14.7565 15.1414V14.3691H15.0763C15.7831 14.3691 16.3555 13.8162 16.3555 13.1335V11.8948C16.3555 11.4622 16.17 11.07 15.8727 10.7889L11.5585 6.33752V5.56528C11.5585 5.13902 11.2002 4.79304 10.7589 4.79304C10.3176 4.79304 9.95943 5.13905 9.95943 5.56528V6.33752H8.04054ZM8.99995 7.8821C10.4135 7.8821 11.5585 8.98799 11.5585 10.3533C11.5585 11.7187 10.4135 12.8247 8.99995 12.8247C7.58639 12.8247 6.44151 11.7187 6.44151 10.3533C6.44151 8.98795 7.58639 7.8821 8.99995 7.8821Z"/>
</svg>
